<svg xmlns="http://www.w3.org/2000/svg" xmlns:xlink="http://www.w3.org/1999/xlink" viewBox="0 0 796.5 796.5"><defs><style>.a{fill:url(#a);}</style><linearGradient id="a" x1="258.39" y1="821.61" x2="821.61" y2="258.39" gradientUnits="userSpaceOnUse"><stop offset="0" stop-color="#6ad3ff"/><stop offset="1" stop-color="#de7fff"/></linearGradient></defs><path class="a" d="M540,938.25A395.68,395.68,0,0,1,258.39,821.61c-85.91-85.92-127.73-204.16-114.11-327.3A392.19,392.19,0,0,1,227.87,292.5C305.31,195.79,418.5,141.75,540,141.75a398.25,398.25,0,1,1,0,796.5Zm.42-756.2c-197.71-.23-358.6,160.66-358.37,358.37.22,196.73,160.8,357.3,357.52,357.53,197.72.24,358.62-160.66,358.38-358.38C897.72,342.85,737.15,182.27,540.42,182.05ZM685,429.9v-2.83a45.3,45.3,0,0,0-45.17-45.17H439.42a45.31,45.31,0,0,0-45.17,45.17v2.83a45.31,45.31,0,0,0,45.17,45.17H617.29a155,155,0,0,1,115,50.81c2.12,2.12,3.53,4.24,5.65,6.36A156,156,0,0,1,617.29,787H462.72a156,156,0,0,1-156-156H395a67.78,67.78,0,0,0,67.76,67.76H616.91c34.29,0,64-25.09,68.29-59.1,5.25-41.27-27.65-76.42-67.91-76.42H439.42A131.93,131.93,0,0,1,347,525.88,124.5,124.5,0,0,1,330,504.71c-14.82-21.17-23.29-47.29-23.29-75.52v-2.82c0-73.37,60-133.4,133.4-133.4H639.87c73.37,0,133.4,60,133.4,133.4v2.82Z" transform="translate(-141.75 -141.75)"/></svg>